<svg width="578" height="434" xmlns="http://www.w3.org/2000/svg" xmlns:xlink="http://www.w3.org/1999/xlink" overflow="hidden"><defs><clipPath id="clip0"><rect x="131" y="165" width="578" height="434"/></clipPath><clipPath id="clip1"><rect x="132" y="166" width="576" height="432"/></clipPath><clipPath id="clip2"><rect x="132" y="166" width="576" height="432"/></clipPath><clipPath id="clip3"><rect x="132" y="166" width="576" height="432"/></clipPath></defs><g clip-path="url(#clip0)" transform="translate(-131 -165)"><g clip-path="url(#clip1)"><g clip-path="url(#clip2)"><g clip-path="url(#clip3)"><path d="M215.75 565.975 83.7971 565.975C71.8938 565.975 62.2435 556.324 62.2435 544.421L62.2435 155.527C62.2435 143.625 71.8938 133.975 83.7971 133.975L215.75 133.975C228.473 133.975 238.789 144.289 238.789 157.013L238.789 542.937C238.789 555.66 228.473 565.975 215.75 565.975Z" fill="#FACFA8" transform="matrix(1.00079 0 0 1 69.8166 32.0253)"/><path d="M415.209 565.975 284.74 565.975C272.016 565.975 261.702 555.66 261.702 542.937L261.702 157.013C261.702 144.289 272.016 133.975 284.74 133.975L415.209 133.975C427.933 133.975 438.248 144.289 438.248 157.013L438.248 542.937C438.246 555.66 427.932 565.975 415.209 565.975Z" fill="#FACFA8" transform="matrix(1.00079 0 0 1 69.8166 32.0253)"/><path d="M261.703 185.638 438.248 185.638 438.248 514.311 261.703 514.311Z" fill="#92BEE2" transform="matrix(1.00079 0 0 1 69.8166 32.0253)"/><path d="M616.154 565.975 484.2 565.975C471.476 565.975 461.161 555.66 461.161 542.937L461.161 157.013C461.161 144.289 471.476 133.975 484.2 133.975L616.154 133.975C628.057 133.975 637.706 143.625 637.706 155.527L637.706 544.421C637.706 556.324 628.057 565.975 616.154 565.975Z" fill="#FACFA8" transform="matrix(1.00079 0 0 1 69.8166 32.0253)"/><path d="M238.788 185.638 130.685 185.638C123.089 185.638 116.93 191.797 116.93 199.394L116.93 500.557C116.93 508.155 123.089 514.312 130.685 514.312L238.788 514.312 238.788 185.638Z" fill="#92BEE2" transform="matrix(1.00079 0 0 1 69.8166 32.0253)"/><path d="M409.424 424.895C411.298 424.071 413.252 424.604 415.205 425.212 421.482 427.167 428.899 433.582 438.246 443.404L438.246 198.742C416.021 196.397 393.361 201.114 373.992 212.744 369.895 215.204 365.672 218.041 361.375 221.317 347.884 231.596 332.773 239.541 316.445 244.122 302.295 248.094 283.869 251.637 261.7 252.608L261.7 449.362C271.739 450.245 282.621 450.311 294.491 449.239L315.24 446.76C321.42 446.022 327.032 449.753 329.389 455.515 333.075 464.53 344.847 476.577 380.978 479.039 388.089 479.524 395.352 478.432 401.703 475.193 411.976 469.952 422 458.527 406.656 434.297 404.532 430.942 405.787 426.489 409.424 424.895Z" fill="#74A0C3" transform="matrix(1.00079 0 0 1 69.8166 32.0253)"/><path d="M238.788 252.891 237.487 252.891C228.304 252.891 220.048 247.779 215.423 239.846 212.714 235.195 208.789 230.133 203.235 226.171 193.252 219.047 179.925 217.859 168.759 222.93 163.137 225.483 157.269 229.877 153.07 237.42 150.862 241.385 149.467 245.787 148.821 250.281 147.641 258.482 147.961 271.914 159.491 281.519 164.406 285.612 165.805 292.509 162.295 297.856 152.771 312.367 140.548 342.353 159.886 385.638 159.886 385.638 179.797 431.074 238.788 445.612L238.788 252.891Z" fill="#74A0C3" transform="matrix(1.00079 0 0 1 69.8166 32.0253)"/><path d="M438.246 215.969C436.793 215.172 406.345 207.702 379.025 230.658 363.907 243.361 342.475 259.711 313.501 269.278 313.501 269.278 296.697 274.167 270.893 271.779 267.819 271.494 264.752 271.427 261.702 271.517L261.702 426.135C269.947 427.047 277.313 427.158 286.434 427.889 286.434 427.889 336.219 431.051 367.601 405.641 378.651 396.695 393.347 393.672 406.906 397.955 417.142 401.187 429.521 410.467 438.246 420.132L438.246 215.969Z" fill="#FEAA3A" transform="matrix(1.00079 0 0 1 69.8166 32.0253)"/><path d="M190.381 268.634C184.709 270.95 178.144 270.365 172.81 267.346 166.727 263.903 160.361 257.242 166.55 245.453 171.988 235.095 181.247 234.702 188.789 236.646 197.304 238.84 203.025 247.336 200.999 255.893 199.812 260.902 196.895 265.975 190.381 268.634Z" fill="#FEAA3A" transform="matrix(1.00079 0 0 1 69.8166 32.0253)"/><path d="M354.528 440.066C363.283 435.46 374.655 430.837 383.611 431.87 385.899 432.133 387.989 433.187 389.66 434.772 393.254 438.187 399.339 445.574 399.333 456.445 399.331 462.527 394.313 467.403 388.235 467.211 379.589 466.939 366.269 465.317 354.344 458.848 346.923 454.821 347.056 443.996 354.528 440.066Z" fill="#FEAA3A" transform="matrix(1.00079 0 0 1 69.8166 32.0253)"/><path d="M141.421 445.939 161.122 445.939C163.113 445.939 164.51 443.977 163.858 442.096L153.486 412.166C152.758 410.065 149.785 410.065 149.058 412.166L138.686 442.096C138.035 443.978 139.431 445.939 141.421 445.939Z" fill="#F27070" transform="matrix(1.00079 0 0 1 69.8166 32.0253)"/><path d="M141.421 453.001 161.122 453.001C163.113 453.001 164.51 454.963 163.858 456.844L153.486 486.772C152.758 488.875 149.785 488.875 149.058 486.772L138.686 456.844C138.035 454.963 139.431 453.001 141.421 453.001Z" fill="#FFFFFF" transform="matrix(1.00079 0 0 1 69.8166 32.0253)"/><path d="M390.975 260.467C390.975 237.823 372.618 219.466 349.975 219.466 327.332 219.466 308.974 237.823 308.974 260.467 308.974 268.064 311.078 275.155 314.679 281.255L339.958 326.144C344.355 333.951 355.595 333.951 359.991 326.144L385.27 281.255C388.872 275.155 390.975 268.064 390.975 260.467Z" fill="#F27070" transform="matrix(1.00079 0 0 1 69.8166 32.0253)"/><path d="M368.824 258.862C368.824 269.273 360.385 277.712 349.975 277.712 339.564 277.712 331.125 269.273 331.125 258.862 331.125 248.452 339.564 240.013 349.975 240.013 360.385 240.013 368.824 248.452 368.824 258.862Z" fill="#FFFFFF" transform="matrix(1.00079 0 0 1 69.8166 32.0253)"/><path d="M238.788 271.516C214.584 272.227 191.742 284.532 180.063 306.067 174.155 316.962 170.096 330.133 170.41 345.605 170.41 345.605 174.804 405.979 238.788 423.606L238.788 271.516Z" fill="#FEAA3A" transform="matrix(1.00079 0 0 1 69.8166 32.0253)"/><path d="M569.264 185.638 461.161 185.638 461.161 514.311 569.264 514.311C576.861 514.311 583.02 508.154 583.02 500.555L583.02 199.393C583.02 191.796 576.861 185.638 569.264 185.638Z" fill="#92BEE2" transform="matrix(1.00079 0 0 1 69.8166 32.0253)"/><path d="M533.115 294.336C525.42 288.07 518.513 280.913 513.593 272.488 509.93 266.217 506.145 258.311 503.481 249.145 498.416 231.717 486.969 216.325 470.293 207.673 467.414 206.179 464.356 204.958 461.161 203.842L461.161 462.516C478.564 475.817 502.237 480.011 522.858 471.127 529.767 468.15 536.517 463.9 542.489 457.897 549.395 450.956 554.044 442.261 556.652 433.031 560.489 419.45 566.919 392.707 566.833 366.318 566.748 340.611 556.639 315.508 537.103 297.766 535.826 296.608 534.499 295.462 533.115 294.336Z" fill="#74A0C3" transform="matrix(1.00079 0 0 1 69.8166 32.0253)"/><path d="M516.471 303.332 516.471 303.332C503.005 294.602 493.213 281.235 488.95 265.765L485.866 254.574C482.179 241.191 473.208 229.995 461.161 223.389L461.161 432.982C473.42 452.423 498.838 457.942 519.183 446.795 528.56 441.654 536.47 432.871 539.415 418.145 539.705 416.7 542.926 390.402 545.866 366.209 548.887 341.352 537.479 316.951 516.471 303.332Z" fill="#FEAA3A" transform="matrix(1.00079 0 0 1 69.8166 32.0253)"/><path d="M376.863 354.718C376.863 360.834 364.824 365.792 349.975 365.792 335.125 365.792 323.087 360.834 323.087 354.718 323.087 348.603 335.125 343.645 349.975 343.645 364.824 343.645 376.863 348.603 376.863 354.718Z" fill="#F08824" transform="matrix(1.00079 0 0 1 69.8166 32.0253)"/></g></g></g></g></svg>