<svg width="1440" height="731" xmlns="http://www.w3.org/2000/svg" xmlns:xlink="http://www.w3.org/1999/xlink" overflow="hidden"><defs><clipPath id="clip0"><rect x="199" y="195" width="1440" height="731"/></clipPath><clipPath id="clip1"><rect x="200" y="196" width="1438" height="729"/></clipPath><clipPath id="clip2"><rect x="200" y="196" width="1438" height="729"/></clipPath><clipPath id="clip3"><rect x="200" y="196" width="1438" height="729"/></clipPath></defs><g clip-path="url(#clip0)" transform="translate(-199 -195)"><g clip-path="url(#clip1)"><g clip-path="url(#clip2)"><g clip-path="url(#clip3)"><path d="M265.132 554.695 348.171 554.695 348.171 609.878 426.513 609.878C418.094 616.042 411.199 624.879 407.189 635.264 396.609 629.536 384.944 624.954 373.32 626.782 361.696 628.61 350.396 638.577 349.425 651.767L349.01 664.296 603.461 663.087 603.443 662.695 687.544 662.695C686.29 648.756 684.583 633.744 675.182 623.397 670.937 618.726 665.396 615.388 659.575 612.963 654.097 610.681 648.302 609.202 642.414 608.499 669.109 608.218 696.788 607.609 696.788 607.609L692.487 554.695 789.165 554.695 903.101 554.695 1002.33 554.695 1146.68 554.695 1437.32 554.695C1378.11 520.374 1317.37 487.898 1255.22 457.41 1242.03 450.941 1228.34 444.43 1213.17 442.758 1191.32 440.348 1169.87 448.294 1150.31 456.788 1130.17 465.536 1108.61 478.31 1087.17 492.61 1059.78 468.509 1028.18 447.414 993.382 446.361 971.561 445.701 950.188 453.024 929.822 461.772 900.455 474.386 872.193 490.171 845.514 508.767 808.185 487.579 770.855 466.392 733.526 445.204 716.682 435.644 699.354 425.967 681.42 418.533L667.845 251.515 689.778 251.515 689.778 213.516C689.778 201.593 680.113 191.928 668.191 191.928L663.001 191.928 658.404 135.361C658.482 135.406 658.563 135.444 658.641 135.49 665.024 139.233 670.805 129.32 664.432 125.582 657.134 121.302 649.456 117.825 641.545 115.127L641.545 58.5911C641.545 43.0881 628.977 30.5204 613.474 30.5204L606.001 30.5204C606.001 22.1944 606.001 13.8683 606.001 5.54209 606.001-1.84126 594.526-1.8535 594.526 5.54209 594.526 13.8683 594.526 22.1944 594.526 30.5204L592.241 30.5204C576.738 30.5204 564.17 43.0881 564.17 58.5911L564.17 113.261C555.382 115.774 546.819 119.183 538.691 123.604 532.469 126.988 537.534 136.204 543.686 133.848L538.966 191.928 533.775 191.928C521.853 191.928 512.189 201.593 512.189 213.515L512.189 251.514 534.122 251.514 519.129 435.976C492.346 447.199 465.379 456.954 436.806 455.849 415.094 455.009 394.096 447.836 372.468 445.746 348.555 443.434 343.549 442.351 321.665 452.261 321.665 452.261 297.501 462.468 287.869 487.558 287.138 489.464 286.48 491.397 285.772 493.312 276.616 486.956 266.536 482.359 255.25 480.557 234.232 477.202 212.787 484.39 191.59 482.459 168.512 480.357 146.715 467.545 123.622 469.477 107.781 470.802 93.4321 478.942 79.6667 486.893 60.4005 498.02 19.2663 540.931-2.9496e-05 552.058L265.453 553.718C265.344 554.043 265.241 554.37 265.132 554.695ZM626.074 608.624C621.358 609.234 616.701 610.293 612.232 611.929 609.336 612.99 606.48 614.36 603.813 615.997 603.62 613.477 603.32 610.971 602.9 608.481 608.783 608.629 616.957 608.662 626.074 608.624ZM466.9 554.695 509.479 554.695 507.513 578.886C498.481 590.253 492.828 605.034 492.863 620.333 486.091 611.578 476.862 605.412 466.9 602.486L466.9 554.695ZM800.95 327.33C812.84 327.33 824.73 327.33 836.621 327.33 830.62 309.658 840.903 287.684 856.673 280.048 873.397 271.951 893.337 277.254 908.524 288.55 908.337 253.433 939.646 223.86 970.81 225.885 1001.97 227.909 1028.81 257.312 1035.66 291.576 1050.12 281.683 1077.34 277.121 1091.95 286.743 1103.72 294.493 1106.91 311.182 1107.41 327.329 1120.4 327.329 1133.39 327.329 1146.39 327.329 1153.78 327.329 1153.77 338.804 1146.39 338.804 1120.91 338.804 1095.43 338.804 1069.95 338.804 980.282 338.804 890.616 338.804 800.95 338.804 793.554 338.804 793.566 327.33 800.95 327.33ZM161.754 375.582C169.703 375.582 177.651 375.582 185.6 375.582 188.534 356.27 195.957 339.147 211.654 326.2 226.977 313.561 247.461 307.474 267.053 311.921 272.317 313.116 277.977 318.013 282.327 321.21 291.75 328.137 298.515 351.273 299.522 352.194 301.614 354.106 318.419 343.714 336.085 353.776 343.67 358.097 348.197 366.796 348.935 375.582 355.756 375.582 362.577 375.582 369.398 375.582 376.793 375.582 376.781 387.056 369.398 387.056 354.18 387.056 338.963 387.056 323.746 387.056 269.748 387.056 215.751 387.056 161.754 387.056 154.359 387.056 154.371 375.582 161.754 375.582ZM1336.65 668.004C1329.37 668.004 1322.1 668.004 1314.82 668.004 1277.47 668.004 1240.11 668.004 1202.76 668.004 1123.8 668.004 1044.84 668.004 965.874 668.004 886.423 668.004 806.971 668.004 727.519 668.004 720.124 668.004 720.136 656.529 727.519 656.529 772.149 656.529 816.78 656.529 861.41 656.529 940.371 656.529 1019.33 656.529 1098.29 656.529 1170.47 656.529 1242.65 656.529 1314.82 656.529 1322.1 656.529 1329.37 656.529 1336.65 656.529 1344.05 656.529 1344.03 668.004 1336.65 668.004ZM1399.29 609.28C1350.15 609.28 1301 609.28 1251.85 609.28 1164.86 609.28 1077.87 609.28 990.885 609.28 903.896 609.28 816.907 609.28 729.918 609.28 722.523 609.28 722.535 597.806 729.918 597.806 779.064 597.806 828.211 597.806 877.357 597.806 964.346 597.806 1051.34 597.806 1138.32 597.806 1225.31 597.806 1312.3 597.806 1399.29 597.806 1406.69 597.806 1406.68 609.28 1399.29 609.28ZM302.682 668.004C247.878 668.004 193.073 668.004 138.269 668.004 130.874 668.004 130.886 656.529 138.269 656.529 193.073 656.529 247.878 656.529 302.682 656.529 310.078 656.529 310.065 668.004 302.682 668.004ZM251.017 609.28C192.554 609.28 134.09 609.28 75.6268 609.28 68.2314 609.28 68.2436 597.806 75.6268 597.806 92.3307 597.806 109.034 597.806 125.738 597.806 184.202 597.806 242.665 597.806 301.129 597.806 308.524 597.806 308.512 609.28 301.129 609.28 284.425 609.28 267.721 609.28 251.017 609.28ZM1252 726.728C1176.69 726.728 1101.37 726.728 1026.06 726.728 892.541 726.728 759.027 726.728 625.513 726.728 491.314 726.728 357.115 726.728 222.916 726.728 215.52 726.728 215.533 715.253 222.916 715.253 298.232 715.253 373.547 715.253 448.863 715.253 582.377 715.253 715.892 715.253 849.406 715.253 983.605 715.253 1117.8 715.253 1252 715.253 1259.4 715.253 1259.39 726.728 1252 726.728Z" fill="#A8D0EF" transform="matrix(1.00046 0 0 1 200 197.994)"/><path d="M689.778 213.516 689.778 251.514 667.845 251.514 534.122 251.514 512.188 251.514 512.188 213.516C512.188 201.593 521.853 191.928 533.775 191.928L538.966 191.928 663.001 191.928 668.191 191.928C680.113 191.928 689.778 201.593 689.778 213.516ZM348.208 524.473 466.995 524.473 407.376 469.146 348.208 524.473ZM543.686 133.848C543.951 133.746 544.215 133.657 544.482 133.511 557.505 126.429 571.723 122.095 586.218 120.436L612.836 120.436C628.761 122.211 644.355 127.167 658.404 135.361 658.482 135.406 658.563 135.444 658.641 135.49 665.024 139.233 670.805 129.32 664.432 125.582 657.134 121.302 649.456 117.825 641.545 115.127L641.545 58.5911C641.545 43.0881 628.977 30.5204 613.474 30.5204L606.001 30.5204C606.001 22.1944 606.001 13.8683 606.001 5.54209 606.001-1.84126 594.526-1.8535 594.526 5.54209 594.526 13.8683 594.526 22.1944 594.526 30.5204L592.241 30.5204C576.738 30.5204 564.17 43.0881 564.17 58.5911L564.17 113.261C555.382 115.774 546.819 119.183 538.691 123.604 532.469 126.988 537.534 136.204 543.686 133.848Z" fill="#DA6220" transform="matrix(1.00046 0 0 1 200 197.994)"/><path d="M265.453 553.718-8.8488e-05 552.058C19.2663 540.931 60.4005 498.02 79.6667 486.893 93.4321 478.942 107.781 470.802 123.622 469.477 146.715 467.545 168.512 480.357 191.59 482.459 212.787 484.39 234.232 477.202 255.25 480.557 266.536 482.359 276.616 486.956 285.772 493.312 278.406 513.242 272.188 533.586 265.453 553.718ZM1002.33 554.695C1027.68 535.4 1057.32 512.515 1087.17 492.61 1059.78 468.509 1028.18 447.414 993.382 446.361 971.561 445.701 950.188 453.024 929.822 461.772 900.455 474.386 872.193 490.171 845.514 508.767 825.829 522.488 807.002 537.731 789.248 554.4L789.165 554.695 903.101 554.695 1002.33 554.695ZM1399.29 597.806C1312.3 597.806 1225.31 597.806 1138.32 597.806 1051.34 597.806 964.346 597.806 877.357 597.806 828.211 597.806 779.064 597.806 729.918 597.806 722.535 597.806 722.523 609.28 729.918 609.28 816.907 609.28 903.896 609.28 990.885 609.28 1077.87 609.28 1164.86 609.28 1251.85 609.28 1301 609.28 1350.15 609.28 1399.29 609.28 1406.68 609.28 1406.69 597.806 1399.29 597.806ZM301.129 609.28C308.512 609.28 308.524 597.806 301.129 597.806 242.665 597.806 184.202 597.806 125.738 597.806 109.034 597.806 92.3307 597.806 75.6268 597.806 68.2436 597.806 68.2314 609.28 75.6268 609.28 134.09 609.28 192.554 609.28 251.017 609.28 267.721 609.28 284.425 609.28 301.129 609.28ZM1336.65 656.529C1329.37 656.529 1322.1 656.529 1314.82 656.529 1242.65 656.529 1170.47 656.529 1098.29 656.529 1019.33 656.529 940.371 656.529 861.41 656.529 816.78 656.529 772.149 656.529 727.519 656.529 720.136 656.529 720.124 668.004 727.519 668.004 806.971 668.004 886.423 668.004 965.874 668.004 1044.84 668.004 1123.8 668.004 1202.76 668.004 1240.11 668.004 1277.47 668.004 1314.82 668.004 1322.1 668.004 1329.37 668.004 1336.65 668.004 1344.03 668.004 1344.05 656.529 1336.65 656.529ZM302.682 656.529C247.878 656.529 193.073 656.529 138.269 656.529 130.886 656.529 130.874 668.004 138.269 668.004 193.073 668.004 247.878 668.004 302.682 668.004 310.065 668.004 310.078 656.529 302.682 656.529ZM1252 715.253C1117.8 715.253 983.605 715.253 849.406 715.253 715.892 715.253 582.377 715.253 448.863 715.253 373.547 715.253 298.232 715.253 222.916 715.253 215.533 715.253 215.52 726.728 222.916 726.728 357.115 726.728 491.314 726.728 625.513 726.728 759.027 726.728 892.541 726.728 1026.06 726.728 1101.37 726.728 1176.69 726.728 1252 726.728 1259.39 726.728 1259.4 715.253 1252 715.253ZM603.443 662.695 687.544 662.695C686.29 648.756 684.583 633.744 675.182 623.397 670.937 618.726 665.396 615.388 659.575 612.963 654.097 610.681 648.302 609.202 642.414 608.499 636.989 607.852 631.492 607.924 626.074 608.624 621.358 609.234 616.701 610.293 612.232 611.929 609.336 612.99 606.48 614.36 603.813 615.997 603.62 613.477 603.32 610.971 602.9 608.481 602.829 608.063 602.778 607.641 602.699 607.224 597.081 577.251 569.553 554.687 542.538 557.912 529.015 559.526 516.566 567.491 507.513 578.886 498.481 590.253 492.828 605.034 492.863 620.333 486.091 611.578 476.862 605.412 466.901 602.486 460.218 600.523 453.21 600.005 446.38 601.195 439.296 602.43 432.52 605.479 426.513 609.878 418.094 616.043 411.199 624.879 407.189 635.264 396.609 629.536 384.944 624.955 373.32 626.782 361.696 628.61 350.396 638.577 349.425 651.767L349.01 664.296 603.461 663.087 603.443 662.695Z" fill="#A8D0EF" transform="matrix(1.00046 0 0 1 200 197.994)"/><path d="M436.806 455.849C415.093 455.01 394.096 447.836 372.468 445.746 348.555 443.434 343.549 442.351 321.665 452.261 321.665 452.261 297.501 462.468 287.869 487.558 287.138 489.464 286.48 491.397 285.772 493.312 278.406 513.242 272.188 533.586 265.453 553.718 265.344 554.043 265.241 554.37 265.132 554.695L348.171 554.695 348.171 524.514 466.9 524.514 466.9 554.695 509.479 554.695 519.129 435.976C492.345 447.199 465.379 456.954 436.806 455.849ZM348.208 524.473 407.376 469.146 466.995 524.473 348.208 524.473ZM733.526 445.204C770.855 466.392 808.185 487.579 845.514 508.767 825.829 522.488 807.002 537.731 789.248 554.4L789.165 554.695 692.487 554.695 681.42 418.533C699.354 425.967 716.682 435.644 733.526 445.204ZM1437.32 554.695 1146.68 554.695 1002.33 554.695C1027.68 535.4 1057.32 512.515 1087.17 492.61 1108.61 478.31 1130.17 465.536 1150.31 456.788 1169.87 448.294 1191.32 440.348 1213.17 442.758 1228.34 444.43 1242.03 450.941 1255.22 457.41 1317.37 487.898 1378.11 520.374 1437.32 554.695ZM624.598 353.549 624.598 417.84 579.75 417.84 579.75 353.549C579.75 344.563 587.034 337.278 596.02 337.278L608.328 337.278C617.314 337.278 624.598 344.563 624.598 353.549ZM642.065 152.691 642.065 179.474 619.346 179.474 619.346 152.691C619.346 148.139 623.036 144.449 627.589 144.449L633.823 144.449C638.375 144.449 642.065 148.139 642.065 152.691ZM583.941 179.474 561.222 179.474 561.222 152.691C561.222 148.139 564.912 144.449 569.464 144.449L575.699 144.449C580.251 144.449 583.941 148.139 583.941 152.691L583.941 179.474Z" fill="#2288C0" transform="matrix(1.00046 0 0 1 200 197.994)"/><path d="M681.42 418.533 667.845 251.514 534.122 251.514 519.129 435.976 509.479 554.695 507.513 578.886C516.566 567.491 529.015 559.526 542.538 557.912 569.553 554.687 597.081 577.251 602.699 607.224 602.778 607.641 602.829 608.063 602.9 608.481 608.783 608.629 616.957 608.662 626.074 608.624 631.492 607.924 636.989 607.852 642.414 608.499 669.109 608.218 696.788 607.609 696.788 607.609L692.487 554.695 681.42 418.533ZM624.598 417.84 579.75 417.84 579.75 353.549C579.75 344.563 587.034 337.278 596.02 337.278L608.328 337.278C617.314 337.278 624.598 344.563 624.598 353.549L624.598 417.84ZM658.404 135.361C644.355 127.167 628.761 122.211 612.836 120.436L586.218 120.436C571.723 122.095 557.505 126.429 544.482 133.511 544.215 133.657 543.951 133.746 543.686 133.848L538.966 191.928 663.001 191.928 658.404 135.361ZM583.941 179.474 561.222 179.474 561.222 152.691C561.222 148.139 564.912 144.449 569.464 144.449L575.699 144.449C580.251 144.449 583.941 148.139 583.941 152.691L583.941 179.474ZM642.065 179.474 619.346 179.474 619.346 152.691C619.346 148.139 623.036 144.449 627.589 144.449L633.823 144.449C638.375 144.449 642.065 148.139 642.065 152.691L642.065 179.474ZM348.171 524.514 466.9 524.514 466.9 554.695 466.9 602.486C460.218 600.523 453.21 600.005 446.38 601.195 439.296 602.43 432.52 605.479 426.512 609.878L348.171 609.878 348.171 554.695 348.171 524.514ZM1146.39 338.804C1120.91 338.804 1095.43 338.804 1069.95 338.804 980.282 338.804 890.616 338.804 800.95 338.804 793.554 338.804 793.566 327.329 800.95 327.329 812.84 327.329 824.73 327.329 836.621 327.329 830.62 309.658 840.903 287.684 856.673 280.048 873.397 271.951 893.337 277.254 908.524 288.55 908.337 253.433 939.646 223.86 970.81 225.885 1001.97 227.909 1028.81 257.312 1035.66 291.576 1050.12 281.683 1077.34 277.121 1091.95 286.743 1103.72 294.493 1106.91 311.182 1107.41 327.329 1120.4 327.329 1133.39 327.329 1146.39 327.329 1153.78 327.33 1153.77 338.804 1146.39 338.804ZM369.398 387.056C354.18 387.056 338.963 387.056 323.746 387.056 269.748 387.056 215.751 387.056 161.754 387.056 154.359 387.056 154.371 375.582 161.754 375.582 169.703 375.582 177.651 375.582 185.6 375.582 188.534 356.27 195.957 339.147 211.654 326.2 226.977 313.561 247.461 307.474 267.053 311.921 272.317 313.116 277.977 318.013 282.327 321.21 291.75 328.137 298.515 351.273 299.522 352.194 301.614 354.106 318.419 343.714 336.085 353.776 343.67 358.097 348.197 366.796 348.935 375.582 355.756 375.582 362.577 375.582 369.398 375.582 376.793 375.582 376.781 387.056 369.398 387.056Z" fill="#FFFFFF" transform="matrix(1.00046 0 0 1 200 197.994)"/></g></g></g></g></svg>