<svg width="770" height="232" xmlns="http://www.w3.org/2000/svg" xmlns:xlink="http://www.w3.org/1999/xlink" overflow="hidden"><defs><clipPath id="clip0"><rect x="155" y="755" width="770" height="232"/></clipPath><clipPath id="clip1"><rect x="156" y="756" width="768" height="230"/></clipPath><clipPath id="clip2"><rect x="156" y="756" width="769" height="230"/></clipPath><clipPath id="clip3"><rect x="156" y="756" width="769" height="230"/></clipPath><clipPath id="clip4"><rect x="156" y="756" width="769" height="230"/></clipPath><clipPath id="clip5"><rect x="540" y="756" width="385" height="230"/></clipPath><clipPath id="clip6"><rect x="156" y="875" width="319" height="111"/></clipPath></defs><g clip-path="url(#clip0)" transform="translate(-155 -755)"><g clip-path="url(#clip1)"><g clip-path="url(#clip2)"><g clip-path="url(#clip3)"><g clip-path="url(#clip4)"><path d="M766.667 114.91C766.667 146.61 753.789 175.33 732.945 196.174 712.191 216.943 683.471 229.805 651.756 229.805L114.895 229.805C53.2474 229.805 2.80013 181.11 0.179688 119.986 0 118.324 0 116.647 0 114.91 0 83.2103 12.8776 54.4753 33.7214 33.6315 54.4753 12.8776 83.1953 0 114.895 0L651.756 0C715.171 0 766.667 51.4954 766.667 114.91" fill="#F5F6F5" transform="matrix(1.00174 0 0 1 156 756.192)"/></g><g clip-path="url(#clip5)"><path d="M766.667 114.91C766.667 146.61 753.789 175.33 732.945 196.174 712.191 216.943 683.471 229.805 651.756 229.805L383.333 229.805 383.333 0 651.756 0C715.171 0 766.667 51.4954 766.667 114.91" fill="#3970C0" transform="matrix(1.00174 0 0 1 156 756.192)"/></g><g clip-path="url(#clip6)"><path d="M316.594 229.805 114.895 229.805C53.2474 229.805 2.80013 181.11 0.179688 119.986 35.9076 198.899 139.512 221.315 316.594 229.805" fill="#E9E8E7" transform="matrix(1.00174 0 0 1 156 756.192)"/></g><path d="M735.491 127.833C730.654 127.833 726.746 123.924 726.746 119.073 726.746 64.8372 688.607 32.4486 624.743 32.4486 619.907 32.4486 615.984 28.5404 615.984 23.6888 615.984 18.8522 619.907 14.929 624.743 14.929 698.46 14.929 744.251 54.8346 744.251 119.073 744.251 123.924 740.342 127.833 735.491 127.833" fill="#85B1DE" transform="matrix(1.00174 0 0 1 156 756.192)"/><path d="M743.517 144.499C743.517 148.916 739.923 152.51 735.491 152.51 731.059 152.51 727.465 148.916 727.465 144.499 727.465 140.066 731.059 136.473 735.491 136.473 739.923 136.473 743.517 140.066 743.517 144.499" fill="#85B1DE" transform="matrix(1.00174 0 0 1 156 756.192)"/></g></g></g></g></svg>